# xmcd
#
# Track frame offsets: 
#        150
#        13025
#        31539
#        45885
#        73841
#        93339
#        111852
#        129644
#        143931
#        165362
#        184399
#        196992
#
# Disc length: 2918 seconds
#
# Revision: 0
# Processed by: cddbd v1.5.2PL0 Copyright (c) Steve Scherf et al.
# Submitted via: ExactAudioCopyFreeDBPlugin 1.0
#
DISCID=9b0b640c
DTITLE=John Lowell - I Am Going to the West
DYEAR=2012
DGENRE=Bluegrass
TTITLE0=Waterbound
TTITLE1=Angus Mackenzie
TTITLE2=Eight More Miles to Louisville
TTITLE3=Lakes of Pontchartrain
TTITLE4=Buffalo Skinners
TTITLE5=Rhythm of the Wheels
TTITLE6=Am I Not Enough
TTITLE7=Mama Don't Like It
TTITLE8=Sarah Hogan
TTITLE9=Laura Foster
TTITLE10=Where the Heart Is
TTITLE11=I Am Going to the West
EXTD=
EXTT0=
EXTT1=
EXTT2=
EXTT3=
EXTT4=
EXTT5=
EXTT6=
EXTT7=
EXTT8=
EXTT9=
EXTT10=
EXTT11=
PLAYORDER=
